<svg width="30" height="30" viewBox="0 0 30 30" fill="none" xmlns="http://www.w3.org/2000/svg">
<g clip-path="url(#clip0_37_1038)">
<path d="M15 2.5C17.7625 2.5 20 4.7375 20 7.5V18.75H21.25C21.9375 18.75 22.5 18.1875 22.5 17.5V10C22.5 9.31 23.06 8.75 23.75 8.75C24.44 8.75 25 9.31 25 10V17.5C25 19.575 23.325 21.25 21.25 21.25H20V25H22.5V27.5H7.5V25H10V17.5H8.75C6.67875 17.5 5 15.8212 5 13.75V11.25C5 10.56 5.56 10 6.25 10C6.94 10 7.5 10.56 7.5 11.25V13.75C7.5 14.4375 8.0625 15 8.75 15H10V7.5C10 4.7375 12.2375 2.5 15 2.5ZM15 5C13.6187 5 12.5 6.11875 12.5 7.5V25H17.5V7.5C17.5 6.11875 16.3813 5 15 5Z" fill="black"/>
</g>
<defs>
<clipPath id="clip0_37_1038">
<rect width="30" height="30" fill="white"/>
</clipPath>
</defs>
</svg>
