<svg width="30" height="30" viewBox="0 0 30 30" fill="none" xmlns="http://www.w3.org/2000/svg">
<path d="M15 2.49988C17.7625 2.49988 20 4.73738 20 7.49988V18.7499H21.25C21.9375 18.7499 22.5 18.1874 22.5 17.4999V9.99988C22.5 9.30988 23.06 8.74988 23.75 8.74988C24.44 8.74988 25 9.30988 25 9.99988V17.4999C25 19.5711 23.3212 21.2499 21.25 21.2499H20V24.9999H22.5V27.4999H7.5V24.9999H10V17.4999H8.75C6.67875 17.4999 5 15.8211 5 13.7499V11.2499C5 10.5599 5.56 9.99988 6.25 9.99988C6.94 9.99988 7.5 10.5599 7.5 11.2499V13.7499C7.5 14.4374 8.0625 14.9999 8.75 14.9999H10V7.49988C10 4.73738 12.2375 2.49988 15 2.49988Z" fill="black"/>
</svg>
